<?xml version="1.0" encoding="utf-8"?>
<!-- Generator: Adobe Illustrator 28.0.0, SVG Export Plug-In . SVG Version: 6.00 Build 0)  -->
<svg version="1.1" id="Turingam_logo" xmlns="http://www.w3.org/2000/svg" xmlns:xlink="http://www.w3.org/1999/xlink" width="500px" height="100px" viewBox="0 0 500 100" xml:space="preserve">
<style type="text/css">
	.st0{fill:url(#SVGID_1_);}
	.st1{fill:#FFFFFF;}
</style>
<g id="brand_mark" transform="matrix(0.674422499252103,0,0,0.674422499252103,-1.9457089039105229,-1.7218006225815952)">
	<g>
		
			<linearGradient id="SVGID_1_" gradientUnits="userSpaceOnUse" x1="-78.4102" y1="657.8746" x2="-77.2517" y2="657.8746" gradientTransform="matrix(84.7407 0 0 -84.7407 6649.6484 55825.4727)">
			<stop  offset="0" style="stop-color:#FBB040"/>
			<stop  offset="1" style="stop-color:#F9ED32"/>
		</linearGradient>
		<path class="st0" d="M77.9,3.9c-24.1,0-45.4,11.7-58.7,29.8c-2,2.5-3.7,5.2-5.2,8.1C8.4,52.2,5.1,64.1,5.1,76.7
			c0,40.1,32.7,72.8,72.8,72.8s72.8-32.7,72.8-72.8S118,3.9,77.9,3.9z M69.6,94.6c-12.1,0-22-10-22-22.2s9.9-22.2,22-22.2
			s22,10,22,22.2S81.7,94.6,69.6,94.6z M69.6,43.6c-15.7,0-28.5,12.9-28.5,28.8s12.8,28.8,28.5,28.8c0.2,0,0.3,0,0.5,0
			c-4.5,1.8-9.4,2.7-14.4,2.7c-22.2,0-40.2-18.2-40.2-40.7c0-6.6,1.6-12.8,4.3-18.3c1.4-2.5,3-5,4.7-7.3
			c7.4-9.2,18.6-15.1,31.2-15.1c21.5,0,39.1,17.2,40.1,38.6C91.5,50.8,81.4,43.6,69.6,43.6z M77.9,143c-35.8,0-65-28.5-66.2-64
			c6.5,18.2,23.7,31.3,44,31.3c25.8,0,46.7-21.2,46.7-47.2s-21-47.2-46.7-47.2c-1.6,0-3.2,0.1-4.8,0.2c8.2-3.7,17.4-5.8,27-5.8
			c36.5,0,66.3,29.7,66.3,66.3S114.4,143,77.9,143z"/>
	</g>
</g>
<path id="logotype" transform="matrix(1.1052375503513314,0,0,1.1052375503513314,83.13603460444534,-11.584930058343037)" class="st1" d="
	M72.2,19.8v7.9H62v35.4h-8.9V27.7H42.7v-7.9L72.2,19.8L72.2,19.8z M95.1,63.7c-9.5,0-16.9-4.9-16.9-15.8V19.8h9v26.9
	c0,6.6,3.5,9,7.9,9c4.5,0,8-2.5,8-9V19.8h9v28.1C112,58.8,104.6,63.7,95.1,63.7L95.1,63.7z M145.2,63.1L133.9,44h-2.6v19.1h-9V19.8
	h15.7c9.8,0,13.9,5.8,13.9,12.9c0,5.8-3.3,9.6-9.2,10.8l13,19.5L145.2,63.1L145.2,63.1z M131.3,27.3v10.3h5.3c4.8,0,6.7-2,6.7-5.2
	c0-3.1-1.9-5.2-6.7-5.2C136.6,27.3,131.3,27.3,131.3,27.3z M162.4,63.1V19.8h9v43.3H162.4z M212.2,19.8h9v43.3h-10.4l-19.2-30.9
	v30.9h-9V19.8h10.3l19.3,30.8L212.2,19.8L212.2,19.8z M251.1,63.7c-12.5,0-21.7-8.6-21.7-22.1c0-13.7,9.4-22.3,22.1-22.3
	c8.4,0,15.3,3.7,19.1,10.2l-7.9,4.2c-2.3-4.4-6.4-6.6-11.2-6.6c-7.5,0-13.1,5.2-13.1,14.3c0,8.8,5.3,14.5,13.5,14.5
	c5.5,0,10.6-2.8,11.9-9.1h-11.8v-7.2h20.3v23.5h-7.1v-6C262.4,61.2,257.7,63.7,251.1,63.7L251.1,63.7z M310.5,63.1l-3.1-8.9h-18.2
	l-3.1,8.9h-9.2l15.9-43.3h11l15.9,43.3H310.5L310.5,63.1z M291.8,46.6h12.9l-6.4-18.4L291.8,46.6z M375.8,63.1h-9L364,30.5l-11,32.6
	h-5.8l-11-32.6l-2.9,32.6h-9l3.6-43.3h12.8l9.2,27.2l9.3-27.2h12.8L375.8,63.1z"/>
<path id="tagline" transform="matrix(0.7459786943722353,0,0,0.7459786943722353,82.50804261125553,48.52412854518731)" class="st1" d="
	M66.4,56.1h-2.3V34.6h9.5c3.2,0,5.4,2.1,5.4,5.1v2.9c0,4.3-4.1,4.9-4.1,4.9l4.8,7.7v0.9h-2.3l-4.8-8.4h-6.1
	C66.4,47.6,66.4,56.1,66.4,56.1z M73.6,36.6h-7.2v9.1h7.2c1.7,0,3.1-1.4,3.1-3.1v-2.9C76.7,38,75.3,36.6,73.6,36.6z M115.5,56.1
	V34.6h14V36l-0.6,0.6h-11v7.5h8.7v2h-8.7v8h11.7v2C129.4,56.1,115.5,56.1,115.5,56.1z M166.2,50.6l-1.8,5.5H162v-0.9l7.5-20.6h2.6
	l7.5,20.6v0.9h-2.3l-1.8-5.5C175.5,50.6,166.2,50.6,166.2,50.6z M174.8,48.6l-3.8-11.2h-0.2l-3.8,11.2H174.8z M214.4,34.6h2.3v19.5
	h11.5v2h-13.8V34.6z M301,56.1V34.6h14V36l-0.6,0.6h-11v7.5h8.7v2h-8.7v8H315v2H301L301,56.1z M348.8,40.6v-0.9
	c0-2.9,2.1-5.1,5.4-5.1h8.4V36l-0.6,0.6h-7.8c-1.7,0-3.1,1.4-3.1,3.1v0.9c0,1.7,0.9,2.6,2.5,2.9l5.7,1.2c2.1,0.5,3.8,2.1,3.8,4.9V51
	c0,2.9-2.1,5.1-5.4,5.1h-9.2v-2h9.2c1.7,0,3.1-1.4,3.1-3.1v-1.4c0-1.7-0.9-2.6-2.5-2.9l-5.7-1.2C350.5,45,348.8,43.4,348.8,40.6z
	 M404.9,36.6v19.5h-2.3V36.6h-6.7v-2h15.8V36l-0.6,0.6H404.9L404.9,36.6z M447.8,50.6l-1.8,5.5h-2.3v-0.9l7.5-20.6h2.6l7.5,20.6v0.9
	H459l-1.8-5.5H447.8L447.8,50.6z M456.4,48.6l-3.8-11.2h-0.2l-3.8,11.2H456.4z M502.3,36.6v19.5H500V36.6h-6.7v-2h15.8V36l-0.6,0.6
	H502.3z M543.7,56.1V34.6h14V36l-0.6,0.6h-11v7.5h8.7v2H546v8h11.7v2H543.7z"/>
</svg>
